<svg xmlns="http://www.w3.org/2000/svg" fill="none" viewBox="0 0 60 30">
    <style type="text/css"><![CDATA[
        .black {
            fill: transparent;
            stroke: black;
            stroke-opacity: 0.9;
            stroke-width: 2;
            stroke-linecap: round;

        }
        .red {
            fill: transparent;
            stroke: red;
            stroke-opacity: 0.75;
            stroke-width: 1.5;
            stroke-linecap: round;

        }
    ]]></style>
    <g transform="translate(-2, 0)">
        <path d="M 3.5 28.5 L 5.5 2" class="black"/>
        <path d="M 5 2 L 12 4 C 25 3, 22 18, 12 16 L 5 18" class="black"/>
        <path d="M 13.5 18 L 22 29" class="black"/>
        
        <path d="M 5.5 29 L 3.5 2" class="red"/>
        <path d="M 5 4 L 12 2 C 22 3, 25 18, 12 18 L 6 16" class="red"/>
        <path d="M 15.5 18 L 20 29.5" class="red"/>
    </g>

    <g transform="translate(20, 0)">
        <path d="M 1 2 L 22 4" class="black"/>
        <path d="M 10 2 L 12.5 28.5" class="black"/>
        <path d="M 1 4 L 22 2" class="red"/>
        <path d="M 12 2 L 10 16 L 10 29.5" class="red"/>
    </g>

    <g transform="translate(48, 15)">
        <path d="M -10 -1 L 10 1" class="black"/>
        <path d="M -1 -10 L 1 10"  class="black"/>
        
        <path d="M -10 1 L 10 -1" class="red"/>
        <path d="M 1 -10 L -1 10" class="red"/>
    </g>
        
</svg>